<svg width="80" height="80" viewBox="0 0 80 80" fill="none" xmlns="http://www.w3.org/2000/svg">
<!-- Kumba the Turtle - Senegalese Sea Turtle Mascot -->
<!-- Shell with geometric patterns inspired by Senegalese textiles -->
<ellipse cx="40" cy="45" rx="28" ry="24" fill="#2ECC71"/>
<ellipse cx="40" cy="45" rx="24" ry="20" fill="#27AE60"/>
<!-- Geometric patterns on shell -->
<path d="M40 25 L40 65" stroke="#D35400" stroke-width="2"/>
<path d="M16 45 L64 45" stroke="#D35400" stroke-width="2"/>
<path d="M24 32 L56 58" stroke="#D35400" stroke-width="2"/>
<path d="M56 32 L24 58" stroke="#D35400" stroke-width="2"/>
<circle cx="40" cy="45" r="8" fill="#F39C12"/>
<!-- Head -->
<ellipse cx="40" cy="18" rx="12" ry="10" fill="#2ECC71"/>
<!-- Eyes -->
<circle cx="35" cy="16" r="3" fill="white"/>
<circle cx="45" cy="16" r="3" fill="white"/>
<circle cx="35" cy="16" r="1.5" fill="#2C3E50"/>
<circle cx="45" cy="16" r="1.5" fill="#2C3E50"/>
<!-- Smile -->
<path d="M36 21 Q40 24 44 21" stroke="#2C3E50" stroke-width="1.5" fill="none"/>
<!-- Flippers -->
<ellipse cx="15" cy="45" rx="8" ry="12" fill="#2ECC71"/>
<ellipse cx="65" cy="45" rx="8" ry="12" fill="#2ECC71"/>
<ellipse cx="40" cy="68" rx="10" ry="6" fill="#2ECC71"/>
<!-- Geometric accents on flippers -->
<path d="M15 38 L15 52" stroke="#D35400" stroke-width="1"/>
<path d="M65 38 L65 52" stroke="#D35400" stroke-width="1"/>
</svg>
